<?xml version="1.0" standalone="no"?>
<!DOCTYPE svg PUBLIC "-//W3C//DTD SVG 20010904//EN"
 "http://www.w3.org/TR/2001/REC-SVG-20010904/DTD/svg10.dtd">
<svg version="1.0" xmlns="http://www.w3.org/2000/svg"
 width="217.000000pt" height="298.000000pt" viewBox="0 0 217.000000 298.000000"
 preserveAspectRatio="xMidYMid meet">

<g transform="translate(0.000000,298.000000) scale(0.100000,-0.100000)"
stroke="none">
<path fill="#26a69a" d="M615 2580 c-137 -87 -267 -170 -288 -184 l-37 -26 2 -1032 3 -1032
75 -43 c111 -62 115 -63 212 -5 255 151 465 285 486 310 9 12 12 233 12 1027
l0 1012 -22 20 c-46 40 -159 113 -176 112 -9 0 -129 -72 -267 -159z m205 -435
l0 -374 -51 -98 c-180 -344 -259 -510 -295 -615 -21 -65 -41 -118 -44 -118 -3
0 -3 82 0 182 6 207 -2 182 124 397 123 207 134 231 155 337 22 106 41 351 41
522 0 98 1 104 26 127 15 14 30 22 35 19 5 -3 9 -174 9 -379z m-203 68 c-10
-284 -32 -376 -132 -558 l-50 -90 -3 88 c-3 80 0 95 32 175 49 124 76 265 76
405 0 113 1 116 26 136 56 44 58 39 51 -156z m-155 -42 c-3 -105 -15 -172 -28
-158 -4 3 -8 58 -11 121 -5 115 5 162 30 153 9 -3 11 -37 9 -116z m358 -802
l0 -101 -54 -81 c-116 -178 -157 -299 -178 -533 l-11 -134 -34 -21 c-19 -12
-37 -19 -40 -16 -9 10 17 242 42 361 28 133 73 272 119 366 50 103 140 260
148 260 5 0 8 -45 8 -101z m0 -504 l0 -184 -59 -41 c-33 -22 -62 -36 -65 -31
-9 15 15 178 39 267 20 73 67 174 80 174 3 0 5 -83 5 -185z"/>
<path fill="#26a69a" d="M1444 2374 c-120 -74 -233 -146 -251 -160 l-33 -25 0 -779 0 -780 39
-28 c22 -16 65 -42 95 -58 52 -27 58 -28 80 -14 210 129 456 288 476 307 l25
23 2 743 c1 408 -1 757 -4 774 -4 27 -18 40 -84 83 -43 27 -89 50 -102 50 -13
0 -121 -60 -243 -136z m186 -184 c0 -98 -3 -116 -25 -160 -50 -98 -107 -266
-145 -428 -34 -141 -51 -308 -57 -550 l-6 -233 -39 -31 c-33 -25 -42 -29 -50
-17 -5 9 -7 124 -5 299 4 258 7 298 32 420 30 156 65 278 134 481 27 79 59
176 70 216 16 52 29 77 49 92 15 11 30 21 35 21 4 0 7 -50 7 -110z m-250 -177
c-23 -87 -47 -175 -52 -195 -20 -75 -28 -36 -26 124 l3 162 54 38 c30 21 56
36 58 34 3 -2 -14 -75 -37 -163z m250 -658 l0 -385 -46 -33 c-25 -17 -51 -32
-57 -32 -20 0 -21 279 -2 430 21 160 81 405 100 405 3 0 5 -173 5 -385z"/>
</g>
</svg>
